<?xml version="1.0" encoding="utf-8"?>
<!-- Generator: Adobe Illustrator 23.0.3, SVG Export Plug-In . SVG Version: 6.00 Build 0)  -->
<svg version="1.1" id="Layer_1" xmlns="http://www.w3.org/2000/svg" xmlns:xlink="http://www.w3.org/1999/xlink" x="0px" y="0px"
	 viewBox="0 0 1200 1200" enable-background="new 0 0 1200 1200" xml:space="preserve">
<g>
	<path fill="#E0CB88" d="M1109.059,289.024v-16.633H90.912v16.633H72.967v621.952h17.945v16.604h104.163v-19.714h14.778v-17.631
		h15.035v-17.888h15.977V856.37h17.004v-17.004h687.171v17.004h14.094v15.977h15.977v17.888h15.035v17.631h14.75v19.714h104.163
		v-16.604h17.974V289.024H1109.059z M443.513,569.245h-47.987v-47.959h47.987V569.245z M810.151,569.245h-47.987v-47.959h47.987
		V569.245z"/>
	<path fill="#EE53D6" d="M982.187,912.945v14.636H217.785v-14.636h14.778v-17.888h15.035V879.08h15.977v-16.747h672.821v16.747
		h16.006v15.977h15.007v17.888H982.187z"/>
	<path fill="#A370EA" d="M1037.078,360.235V343.63H162.922v16.604h-17.945v364.67h17.945v13.751h874.157v-13.751h17.945v-364.67
		H1037.078z M921.275,599.8h-13.152v17.004h-15.977v15.977h-15.634v11.498H330.478v-11.498h-16.918v-15.977h-16.005V599.8h-13.152
		V493.783h13.152v-17.546h16.005V460.26h16.918v-12.753h546.034v12.753h15.634v15.977h15.977v17.546h13.152V599.8z"/>
	<path fill="#000C88" d="M843.845,883.702h22.71v22.738h-22.71V883.702z M771.95,906.44h22.71v-22.738h-22.71V906.44z
		 M393.957,906.44h22.71v-22.738h-22.71V906.44z M322.062,906.44h22.71v-22.738h-22.71V906.44z M1059.788,351.676h18.202v385.097
		h-18.202v10.841h-11.241v14.037H154.363v-14.037h-14.179v-10.841h-18.202V351.676h18.202v-14.151h14.179v-16.861h894.185v16.861
		h11.241V351.676z M1055.024,360.235h-17.945V343.63H162.922v16.604h-17.945v364.67h17.945v13.751h874.157v-13.751h17.945V360.235z
		 M1150,280.465V921.96h-18.23v11.726h-11.298v16.89H82.353v-16.89H68.202v-14.579H50V280.465h18.202v-14.151h14.151v-16.89
		h1038.118v16.89h11.298v14.151H1150z M982.187,912.945h-14.778v-17.888h-15.007V879.08h-16.006v-16.747H263.575v16.747h-15.977
		v15.977h-15.035v17.888h-14.778v14.636h764.402V912.945z M1127.033,289.024h-17.974v-16.633H90.912v16.633H72.967v621.952h17.945
		v16.604h104.163v-19.714h14.778v-17.631h15.035v-17.888h15.977V856.37h17.004v-17.004h687.171v17.004h14.094v15.977h15.977v17.888
		h15.035v17.631h14.75v19.714h104.163v-16.604h17.974V289.024z M908.123,493.783h13.152V599.8h-13.152v17.004h-15.977v15.977
		h-15.634v11.498H330.478v-11.498h-16.918v-15.977h-16.005V599.8h-13.152V493.783h13.152v-17.546h16.005V460.26h16.918v-12.753
		h546.034v12.753h15.634v15.977h15.977V493.783z M898.309,498.947h-12.896V482.97h-16.006v-12.496H336.27v12.496h-15.977v15.977
		h-12.896v95.119h12.896v16.005h15.977v11.212h533.138v-11.212h16.006v-16.005h12.896V498.947z M449.818,512.128h16.69v69.128
		h-16.69v10.984h-60.569v-10.984h-16.69v-69.128h16.69v-13.837h60.569V512.128z M443.513,521.286h-47.987v47.959h47.987V521.286z
		 M816.428,512.128h16.69v69.128h-16.69v10.984h-60.54v-10.984h-16.69v-69.128h16.69v-13.837h60.54V512.128z M810.151,521.286
		h-47.987v47.959h47.987V521.286z"/>
	<path fill="#B09F6B" d="M90.912,910.976H72.967V289.024h17.945V910.976z M107.545,272.391H90.912v16.633h16.633V272.391z
		 M107.517,910.976H90.912v16.604h16.604V910.976z"/>
	<path fill="#E0E0E0" d="M1127.033,289.024v621.952h-17.71V289.024H1127.033z M1092.455,927.581h16.604v-16.604h-16.604V927.581z
		 M1092.427,289.024h16.633v-16.633h-16.633V289.024z"/>
</g>
</svg>
